HIERARCHY
ROOT root
{
	OFFSET	0	13.1	24.9
	CHANNELS 6  Xposition Yposition Zposition Xrotation Yrotation Zrotation
	JOINT spine_1
	{
		OFFSET	0	9.99999	0
		CHANNELS 3  Xrotation Yrotation Zrotation
		JOINT spine_2
		{
			OFFSET	0	112	-10
			CHANNELS 3  Xrotation Yrotation Zrotation
			JOINT spine_3
			{
				OFFSET	0	206.5	19.3
				CHANNELS 3  Xrotation Yrotation Zrotation
				JOINT spine_4
				{
					OFFSET	0	110.4	14.6
					CHANNELS 3  Xrotation Yrotation Zrotation
					JOINT neck_1
					{
						OFFSET	0	71.8	-50.3
						CHANNELS 3  Xrotation Yrotation Zrotation
						JOINT neck_2
						{
							OFFSET	0	86.2	-25.8
							CHANNELS 3  Xrotation Yrotation Zrotation
							JOINT head_ee
							{
								OFFSET	0	179.8	-8.7
								CHANNELS 3  Xrotation Yrotation Zrotation
								End Site
								{
									OFFSET	1	0	0
								}
							}
						}
					}
					JOINT left_clavicle
					{
						OFFSET	-43.2	22.4	-70.8
						CHANNELS 3  Xrotation Yrotation Zrotation
						JOINT left_shoulder
						{
							OFFSET	-93.9	-5.79999	48.7
							CHANNELS 3  Xrotation Yrotation Zrotation
							JOINT left_elbow
							{
								OFFSET	-291.4	-30.8	15.2
								CHANNELS 3  Xrotation Yrotation Zrotation
								JOINT left_lowarm_twist
								{
									OFFSET	-110.7	-3.89999	13.6
									CHANNELS 3  Xrotation Yrotation Zrotation
									JOINT left_hand
									{
										OFFSET	-110.7	-3.89999	13.6
										CHANNELS 3  Xrotation Yrotation Zrotation
										JOINT left_ee
										{
											OFFSET	-80.8	-5.10001	12.1
											CHANNELS 3  Xrotation Yrotation Zrotation
											End Site
											{
												OFFSET	1	0	0
											}
										}
									}
								}
							}
						}
					}
					JOINT right_clavicle
					{
						OFFSET	43.2	22.4	-70.8
						CHANNELS 3  Xrotation Yrotation Zrotation
						JOINT right_shoulder
						{
							OFFSET	93.9	-5.79999	48.7
							CHANNELS 3  Xrotation Yrotation Zrotation
							JOINT right_elbow
							{
								OFFSET	291.4	-30.8	15.2
								CHANNELS 3  Xrotation Yrotation Zrotation
								JOINT right_lowarm_twist
								{
									OFFSET	110.7	-3.89999	13.6
									CHANNELS 3  Xrotation Yrotation Zrotation
									JOINT right_hand
									{
										OFFSET	110.7	-3.89999	13.6
										CHANNELS 3  Xrotation Yrotation Zrotation
										JOINT right_ee
										{
											OFFSET	80.8	-5.10001	12.1
											CHANNELS 3  Xrotation Yrotation Zrotation
											End Site
											{
												OFFSET	1	0	0
											}
										}
									}
								}
							}
						}
					}
				}
			}
		}
	}
	JOINT left_hip
	{
		OFFSET	-82.8	-127.5	0.300001
		CHANNELS 3  Xrotation Yrotation Zrotation
		JOINT left_knee
		{
			OFFSET	-28.2	-396.7	2.2
			CHANNELS 3  Xrotation Yrotation Zrotation
			JOINT left_ankle
			{
				OFFSET	-11.7	-411.3	35.4
				CHANNELS 3  Xrotation Yrotation Zrotation
				JOINT left_toes
				{
					OFFSET	0	-60	-88.6
					CHANNELS 3  Xrotation Yrotation Zrotation
					JOINT left_foot_ee
					{
						OFFSET	-22.5	-16.5	-42.2
						CHANNELS 3  Xrotation Yrotation Zrotation
						End Site
						{
							OFFSET	1	0	0
						}
					}
				}
			}
		}
	}
	JOINT right_hip
	{
		OFFSET	82.8	-127.5	0.300001
		CHANNELS 3  Xrotation Yrotation Zrotation
		JOINT right_knee
		{
			OFFSET	28.2	-396.7	2.2
			CHANNELS 3  Xrotation Yrotation Zrotation
			JOINT right_ankle
			{
				OFFSET	11.7	-411.3	35.4
				CHANNELS 3  Xrotation Yrotation Zrotation
				JOINT right_toes
				{
					OFFSET	0	-60	-88.6
					CHANNELS 3  Xrotation Yrotation Zrotation
					JOINT right_foot_ee
					{
						OFFSET	22.5	-16.5	-42.2
						CHANNELS 3  Xrotation Yrotation Zrotation
						End Site
						{
							OFFSET	1	0	0
						}
					}
				}
			}
		}
	}
}
MOTION
Frames: 6
Frame Time: 0.02
3177.02 653.055 -1669.29 -10.728792536 80.7503752416 10.5924675858 1.17139 0.1703 -0.363998 1.17145 0.193117 -0.352424 1.17024 0.256615 -0.309266 1.17017 0.204552 -0.345912 -12.3706 9.5951 3.92896 -12.4719 15.7256 6.54039 -0.0 0.0 -0.0 -0.728379 18.1076 1.01251 -35.1431 -35.4163 66.4884 0.380355 -10.6706 0.035521 -77.6323 -7.52077 5.30536 4.08959 -24.727 16.2421 -0.0 0.0 -0.0 8.59498 27.9346 -15.5283 8.7519 19.5617 -41.7102 2.14994 46.7974 -0.930393 12.5541 -0.270433 1.57768 0.372616 16.2726 4.42275 0.0 0.0 0.0 34.2219 1.42507 -1.74869 -3.1694 0.117458 0.472158 -12.4826 25.2421 1.94704 3.0708 -0.0 -0.0 -0.0 0.0 -0.0 -19.3458 20.839 -0.789982 -3.43009 -0.125952 -0.511266 24.1079 -9.61541 3.2307 -16.6723 0.0 0.0 0.0 0.0 0.0 
3103.74534074 657.581 -1662.64224958 -10.9352670209 79.521055046 12.0516290869 1.21944 -0.239883 -0.640828 1.21965 -0.19862 -0.654793 1.22199 -0.0710998 -0.68055 1.22139 -0.177685 -0.660781 -11.4784 9.88536 5.89782 -11.4894 14.8826 8.37824 -0.0 0.0 -0.0 -0.0448095 17.6946 2.00389 -34.8892 -35.3722 66.2077 0.448637 -12.5301 0.0492533 -76.9707 -7.43643 5.31027 3.96448 -23.2134 16.2468 -0.0 0.0 -0.0 8.4507 26.5509 -15.3617 7.34312 18.9773 -42.7482 2.18126 47.2105 -0.953301 8.54048 -0.221698 1.06743 0.265742 15.3921 4.76311 0.0 0.0 0.0 34.7387 0.731936 1.094 -9.5652 0.274101 1.44067 -20.2466 29.2818 3.25158 2.84394 -0.0 -0.0 -0.0 0.0 -0.0 -20.7868 23.0986 -2.93866 -6.58628 -0.214608 -0.987463 18.1558 -13.2763 2.51324 -14.1791 0.0 0.0 0.0 0.0 0.0 
3038.34419007 655.378 -1659.06786397 -12.9907030438 78.7710632506 15.1619055375 1.37648 -0.176126 -1.202 1.37728 -0.0992883 -1.21076 1.37949 0.12837 -1.20803 1.37746 -0.0640123 -1.21314 -9.03166 9.7829 3.7509 -9.05269 15.7677 5.9756 -0.0 0.0 -0.0 1.27252 17.4046 3.99749 -33.2072 -36.0977 64.3356 0.521244 -14.4782 0.0662104 -75.3744 -7.2327 5.31807 3.4756 -18.6694 15.3305 -0.0 0.0 -0.0 7.76161 21.354 -14.3353 5.89581 16.5462 -43.91 2.60696 52.2389 -1.2784 5.19265 -0.153796 0.645222 0.269725 15.9221 4.96336 0.0 0.0 0.0 32.8886 -0.669751 -0.672569 -12.591 0.310332 1.90347 -24.6264 26.8666 3.89992 1.978 -0.0 -0.0 -0.0 0.0 -0.0 -20.7921 25.6952 -1.6556 -11.2829 -0.297669 -1.70317 10.9127 -16.9312 1.56587 -13.4456 0.0 0.0 0.0 0.0 0.0 
3038.46072176 655.378 -1657.59390069 -13.7192545177 79.3638383458 15.9039135032 1.37648 -0.176126 -1.202 1.37728 -0.0992883 -1.21076 1.37949 0.12837 -1.20803 1.37746 -0.0640123 -1.21314 -9.03166 9.7829 3.7509 -9.05269 15.7677 5.9756 -0.0 0.0 -0.0 1.27252 17.4046 3.99749 -33.2072 -36.0977 64.3356 0.521244 -14.4782 0.0662104 -75.3744 -7.2327 5.31807 3.4756 -18.6694 15.3305 -0.0 0.0 -0.0 7.76161 21.354 -14.3353 5.89581 16.5462 -43.91 2.60696 52.2389 -1.2784 5.19265 -0.153796 0.645222 0.269725 15.9221 4.96336 0.0 0.0 0.0 32.8886 -0.669751 -0.672569 -12.591 0.310332 1.90347 -24.6264 26.8666 3.89992 1.978 -0.0 -0.0 -0.0 0.0 -0.0 -20.7921 25.6952 -1.6556 -11.2829 -0.297669 -1.70317 10.9127 -16.9312 1.56587 -13.4456 0.0 0.0 0.0 0.0 0.0 
2993.23815604 669.957 -1653.50666796 -16.3623961948 79.0701365775 18.7403705227 1.37404 -0.12559 -1.32746 1.37502 -0.0408739 -1.33276 1.37609 0.20862 -1.31697 1.37366 -0.00196956 -1.33338 -8.44478 9.37611 3.39382 -8.45469 15.1738 5.45877 -0.0 0.0 -0.0 2.51242 16.5366 5.86893 -31.9766 -36.495 62.484 0.538491 -14.9362 0.0705891 -75.5757 -7.2584 5.3174 2.96179 -12.5411 14.7679 -0.0 0.0 -0.0 7.55267 20.5148 -13.9457 3.42345 15.194 -45.5588 2.3956 49.8729 -1.11398 4.64735 -0.140404 0.576852 0.589225 19.85 4.51839 0.0 0.0 0.0 31.9552 -1.44133 -0.288508 -15.6115 0.322084 2.3667 -23.3175 27.6355 3.70909 3.83531 -0.0 -0.0 -0.0 0.0 -0.0 -17.7792 26.3386 -1.59475 -16.6031 -0.320616 -2.51883 10.8711 -16.856 1.5598 -13.3056 0.0 0.0 0.0 0.0 0.0 
2940.58175905 698.561 -1653.43710069 -6.84564153686 79.0093379114 10.1617260034 0.89205 -0.448168 -1.7074 0.893608 -0.33863 -1.73245 0.904426 0.00513764 -1.76522 0.900181 -0.273667 -1.74389 -10.0053 9.52074 6.58945 -9.94768 13.4835 8.77592 -0.0 0.0 -0.0 4.92118 14.0678 9.69973 -27.5079 -38.1788 59.9629 0.56176 -15.551 0.0767072 -78.4153 -7.62047 5.29828 2.16965 6.49219 17.1407 -0.0 0.0 -0.0 7.51314 19.8444 -13.9124 -2.39186 14.2031 -47.061 1.79764 41.681 -0.684361 3.65432 -0.114344 0.45268 1.87864 27.1645 -0.593256 0.0 0.0 0.0 27.3135 -4.15682 0.147869 -19.0482 0.30575 2.89366 -14.4126 22.2632 2.22102 15.3309 -0.0 -0.0 -0.0 0.0 -0.0 -8.44972 24.4548 -2.06942 -31.7521 0.0270207 -4.81091 6.60279 -9.09416 0.949155 -11.7718 0.0 0.0 0.0 0.0 0.0 
